<svg width="7" height="9" viewBox="0 0 7 9" fill="none" xmlns="http://www.w3.org/2000/svg">
<path d="M3.17 5.57C3.17 5.22333 3.24667 4.93667 3.4 4.71C3.56 4.48333 3.79 4.23333 4.09 3.96C4.31 3.76 4.47 3.59333 4.57 3.46C4.67667 3.32 4.73 3.16333 4.73 2.99C4.73 2.74333 4.63 2.55 4.43 2.41C4.23667 2.26333 3.97667 2.19 3.65 2.19C3.33667 2.19 3.05667 2.25667 2.81 2.39C2.57 2.51667 2.36667 2.69667 2.2 2.93L0.99 2.22C1.27 1.79333 1.64667 1.46333 2.12 1.23C2.6 0.996666 3.16667 0.88 3.82 0.88C4.58667 0.88 5.2 1.04333 5.66 1.37C6.12667 1.69667 6.36 2.15 6.36 2.73C6.36 3.00333 6.31333 3.24333 6.22 3.45C6.13333 3.65667 6.02333 3.83333 5.89 3.98C5.76333 4.12 5.59667 4.28333 5.39 4.47C5.14333 4.69 4.96333 4.87667 4.85 5.03C4.73667 5.17667 4.68 5.35667 4.68 5.57H3.17ZM3.93 8.08C3.65667 8.08 3.42667 7.99333 3.24 7.82C3.06 7.64 2.97 7.42333 2.97 7.17C2.97 6.91667 3.06 6.70667 3.24 6.54C3.42 6.36667 3.65 6.28 3.93 6.28C4.21 6.28 4.44 6.36667 4.62 6.54C4.8 6.70667 4.89 6.91667 4.89 7.17C4.89 7.42333 4.79667 7.64 4.61 7.82C4.43 7.99333 4.20333 8.08 3.93 8.08Z" fill="white"/>
</svg>
