<svg width="47" height="31" viewBox="0 0 47 31" fill="none" xmlns="http://www.w3.org/2000/svg">
<path d="M4 19L38 1" stroke="#73CDFF" stroke-width="2" stroke-dasharray="2 2"/>
<path d="M4 26L41 28" stroke="#73CDFF" stroke-width="2" stroke-dasharray="2 2"/>
<g filter="url(#filter0_d)">
<line x1="4.84077" y1="22.0128" x2="35.8408" y2="17.0128" stroke="#73CDFF" stroke-width="2" stroke-dasharray="2 2"/>
</g>
<path d="M42.17 15.57C42.17 15.2233 42.2467 14.9367 42.4 14.71C42.56 14.4833 42.79 14.2333 43.09 13.96C43.31 13.76 43.47 13.5933 43.57 13.46C43.6767 13.32 43.73 13.1633 43.73 12.99C43.73 12.7433 43.63 12.55 43.43 12.41C43.2367 12.2633 42.9767 12.19 42.65 12.19C42.3367 12.19 42.0567 12.2567 41.81 12.39C41.57 12.5167 41.3667 12.6967 41.2 12.93L39.99 12.22C40.27 11.7933 40.6467 11.4633 41.12 11.23C41.6 10.9967 42.1667 10.88 42.82 10.88C43.5867 10.88 44.2 11.0433 44.66 11.37C45.1267 11.6967 45.36 12.15 45.36 12.73C45.36 13.0033 45.3133 13.2433 45.22 13.45C45.1333 13.6567 45.0233 13.8333 44.89 13.98C44.7633 14.12 44.5967 14.2833 44.39 14.47C44.1433 14.69 43.9633 14.8767 43.85 15.03C43.7367 15.1767 43.68 15.3567 43.68 15.57H42.17ZM42.93 18.08C42.6567 18.08 42.4267 17.9933 42.24 17.82C42.06 17.64 41.97 17.4233 41.97 17.17C41.97 16.9167 42.06 16.7067 42.24 16.54C42.42 16.3667 42.65 16.28 42.93 16.28C43.21 16.28 43.44 16.3667 43.62 16.54C43.8 16.7067 43.89 16.9167 43.89 17.17C43.89 17.4233 43.7967 17.64 43.61 17.82C43.43 17.9933 43.2033 18.08 42.93 18.08Z" fill="white"/>
<defs>
<filter id="filter0_d" x="0.681519" y="16.0256" width="39.3185" height="14.9744" filterUnits="userSpaceOnUse" color-interpolation-filters="sRGB">
<feFlood flood-opacity="0" result="BackgroundImageFix"/>
<feColorMatrix in="SourceAlpha" type="matrix" values="0 0 0 0 0 0 0 0 0 0 0 0 0 0 0 0 0 0 127 0" result="hardAlpha"/>
<feOffset dy="4"/>
<feGaussianBlur stdDeviation="2"/>
<feComposite in2="hardAlpha" operator="out"/>
<feColorMatrix type="matrix" values="0 0 0 0 0 0 0 0 0 0 0 0 0 0 0 0 0 0 0.25 0"/>
<feBlend mode="normal" in2="BackgroundImageFix" result="effect1_dropShadow"/>
<feBlend mode="normal" in="SourceGraphic" in2="effect1_dropShadow" result="shape"/>
</filter>
</defs>
</svg>
