<svg width="41" height="41" viewBox="0 0 41 41" fill="none" xmlns="http://www.w3.org/2000/svg">
<g clip-path="url(#clip0)">
<path d="M21.9014 5.50061C21.395 5.45826 20.8892 5.43677 20.3979 5.43677C15.6692 5.43677 11.2235 7.27824 7.87969 10.622C4.53594 13.9658 2.69447 18.4115 2.69447 23.1403V24.0546H1.09646V23.2871C1.09646 21.6785 1.29197 20.0735 1.67749 18.5167C1.75707 18.1954 1.56108 17.8706 1.23988 17.791C0.918599 17.7115 0.593723 17.9074 0.514142 18.2287C0.105291 19.8796 -0.102051 21.5815 -0.102051 23.2871V24.2025C-0.102051 24.7818 0.369203 25.2531 0.948561 25.2531H1.29621V27.7543C0.500639 28.0086 -0.0771218 28.7548 -0.0771218 29.6336V35.8678C-0.0771218 36.9555 0.807777 37.8404 1.89546 37.8404C2.68384 37.8404 3.36539 37.3753 3.68092 36.7051H4.93672V37.8261C4.93672 39.529 6.32219 40.9145 8.02511 40.9145H10.0869C10.9628 40.9145 11.6754 40.2019 11.6754 39.326V26.1754C11.6754 25.2995 10.9629 24.5869 10.0869 24.5869H8.02511C6.32219 24.5869 4.93672 25.9723 4.93672 27.6752V28.7962H3.68092C3.44897 28.3037 3.01934 27.9221 2.49472 27.7544V25.2532H2.84236C3.42164 25.2532 3.89298 24.782 3.89298 24.2026V23.1403C3.89298 18.7317 5.6098 14.587 8.72712 11.4696C11.8445 8.35218 15.9893 6.63544 20.3979 6.63544C20.8559 6.63544 21.3282 6.65549 21.8015 6.69512C22.132 6.72333 22.421 6.47771 22.4486 6.14788C22.4762 5.81805 22.2313 5.52825 21.9014 5.50061ZM10.4769 26.1754V39.3259C10.4769 39.541 10.302 39.7159 10.0869 39.7159H8.62437V25.7853H10.0869C10.302 25.7854 10.4769 25.9603 10.4769 26.1754ZM6.13522 27.6752C6.13522 26.8426 6.67671 26.1345 7.42586 25.8833V39.6181C6.67671 39.3669 6.13522 38.6588 6.13522 37.8261V27.6752ZM4.93672 35.5066H3.86805V29.9948H4.93672V35.5066ZM2.66954 35.8678C2.66954 36.2946 2.32229 36.6418 1.89546 36.6418C1.46863 36.6418 1.12139 36.2946 1.12139 35.8678V29.6336C1.12139 29.2068 1.46863 28.8595 1.89546 28.8595C2.32229 28.8595 2.66954 29.2068 2.66954 29.6336V35.8678Z" fill="#73CDFF"/>
<path d="M21.9018 2.69671C21.4145 2.66076 20.9288 2.64182 20.4585 2.64046C20.4382 2.64046 20.4183 2.64038 20.398 2.64038C14.9622 2.64038 9.84391 4.74376 5.98056 8.56684C3.93031 10.5958 2.35771 13.0028 1.30637 15.7214C1.187 16.03 1.34041 16.377 1.64915 16.4964C1.72018 16.5239 1.79329 16.5369 1.86512 16.5369C2.10546 16.5369 2.3323 16.3913 2.42418 16.1537C3.41415 13.5939 4.89439 11.328 6.82359 9.41874C10.4746 5.80588 15.3139 3.82778 20.4549 3.83897C20.8972 3.84025 21.3543 3.85807 21.8136 3.89194C22.1439 3.91679 22.431 3.66854 22.4552 3.33839C22.4797 3.00832 22.2318 2.72108 21.9018 2.69671Z" fill="#73CDFF"/>
<path d="M39.0846 16.2425C38.7707 16.3474 38.6013 16.6869 38.7062 17.0008C39.3653 18.9726 39.6994 21.0383 39.6994 23.1404V24.0548H38.1014V23.1404C38.1014 21.0148 37.7304 18.9378 36.9986 16.967C36.8833 16.6567 36.5384 16.4985 36.2282 16.6138C35.9179 16.7291 35.7598 17.0739 35.875 17.3842C36.557 19.2212 36.9029 21.1579 36.9029 23.1404V24.2027C36.9029 24.782 37.3742 25.2533 37.9535 25.2533H38.3012V27.7545C37.7765 27.9222 37.3469 28.3038 37.115 28.7964H35.8592V27.6754C35.8592 25.9725 34.4737 24.587 32.7708 24.587H30.7089C29.833 24.587 29.1204 25.2997 29.1204 26.1755V35.5368C29.1204 35.8678 29.3887 36.1361 29.7196 36.1361C30.0506 36.1361 30.3189 35.8678 30.3189 35.5368V26.1755C30.3189 25.9605 30.4939 25.7855 30.7089 25.7855H32.1715V39.7162H30.7089C30.4939 39.7162 30.3189 39.5412 30.3189 39.3262V38.0907C30.3189 37.7598 30.0506 37.4915 29.7196 37.4915C29.3887 37.4915 29.1204 37.7598 29.1204 38.0907V39.3262C29.1204 40.2021 29.833 40.9147 30.7089 40.9147H32.7708C34.4737 40.9147 35.8592 39.5293 35.8592 37.8263V36.7053H37.115C37.4305 37.3754 38.112 37.8405 38.9004 37.8405C39.9881 37.8405 40.873 36.9556 40.873 35.868V29.6338C40.873 28.755 40.2952 28.0089 39.4997 27.7545V25.2533H39.8473C40.4266 25.2533 40.8979 24.7821 40.8979 24.2027V23.1404C40.8979 20.9088 40.5429 18.7153 39.8429 16.6209C39.738 16.3069 39.3985 16.1376 39.0846 16.2425ZM34.6607 37.8263C34.6607 38.659 34.1193 39.367 33.3701 39.6182V25.8835C34.1193 26.1347 34.6607 26.8428 34.6607 27.6754V37.8263ZM35.8593 29.9949H36.9279V35.5068H35.8593V29.9949ZM39.6746 35.868C39.6746 36.2948 39.3273 36.642 38.9005 36.642C38.4737 36.642 38.1264 36.2948 38.1264 35.868V29.6338C38.1264 29.207 38.4737 28.8597 38.9005 28.8597C39.3273 28.8597 39.6746 29.207 39.6746 29.6338V35.868Z" fill="#73CDFF"/>
<path d="M40.2987 4.25914C40.6297 4.25914 40.898 3.99084 40.898 3.65989V3.53956C40.898 1.57464 39.2994 -0.0239258 37.3346 -0.0239258H27.2127C25.2479 -0.0239258 23.6493 1.57464 23.6493 3.53956V11.8143C23.6493 13.5793 24.9391 15.0487 26.6257 15.3294V17.7673C26.6257 18.1854 26.8786 18.5509 27.2698 18.6984C27.3862 18.7423 27.5062 18.7636 27.6244 18.7636C27.9038 18.7636 28.1744 18.6448 28.3683 18.4241L31.045 15.3777H37.3346C39.2994 15.3777 40.898 13.7791 40.898 11.8142V6.21367C40.898 5.88272 40.6297 5.61441 40.2987 5.61441C39.9678 5.61441 39.6995 5.88272 39.6995 6.21367V11.8142C39.6995 13.1183 38.6385 14.1792 37.3346 14.1792H30.7739C30.6015 14.1792 30.4375 14.2534 30.3237 14.3829L27.8242 17.2276V14.7784C27.8242 14.4475 27.5559 14.1792 27.2249 14.1792H27.2127C25.9087 14.1792 24.8478 13.1183 24.8478 11.8142V3.53948C24.8478 2.23542 25.9087 1.1745 27.2127 1.1745H37.3346C38.6385 1.1745 39.6995 2.23542 39.6995 3.53948V3.65981C39.6995 3.99084 39.9678 4.25914 40.2987 4.25914Z" fill="#73CDFF"/>
<path d="M37.1079 3.87111C37.1079 3.53624 36.9553 3.22759 36.6892 3.0244C36.4231 2.82121 36.0852 2.75522 35.7621 2.84343L31.4455 4.02172C30.9836 4.14788 30.6608 4.57048 30.6608 5.0494V9.1459C30.1136 9.00568 29.4647 9.10499 28.898 9.46846C27.9222 10.0942 27.5545 11.2678 28.0783 12.0848C28.3855 12.564 28.9322 12.8156 29.5287 12.8156C29.9493 12.8156 30.3945 12.6905 30.798 12.4317C31.4469 12.0157 31.8265 11.3573 31.8542 10.7227C31.8573 10.6981 31.8594 10.6732 31.8594 10.6477V7.99885L35.9094 6.89327V8.40618C35.81 8.38046 35.707 8.36232 35.6006 8.35297C35.1115 8.31006 34.5955 8.44502 34.1466 8.7329C33.6976 9.02078 33.3595 9.43371 33.1945 9.89569C33.0127 10.4047 33.061 10.9346 33.3268 11.3492C33.5927 11.7639 34.0541 12.0289 34.5926 12.0762C34.652 12.0814 34.7118 12.0839 34.7719 12.0839C35.2058 12.0839 35.6522 11.9491 36.0466 11.6962C36.4956 11.4083 36.8337 10.9954 36.9987 10.5334C37.0694 10.3354 37.1048 10.1344 37.1067 9.93804C37.1071 9.92973 37.108 9.92158 37.108 9.91319V3.87111H37.1079ZM30.1511 11.4227C29.7028 11.7102 29.2305 11.6613 29.0872 11.4378C28.9439 11.2141 29.0966 10.7647 29.545 10.4772C29.7618 10.3382 29.9842 10.2779 30.1723 10.2779C30.3731 10.2779 30.5348 10.3467 30.6089 10.4622C30.7522 10.6858 30.5994 11.1353 30.1511 11.4227ZM31.8594 6.75648V5.15104L35.9094 4.04553V5.65097L31.8594 6.75648ZM35.87 10.1304C35.7948 10.3409 35.6234 10.5439 35.3997 10.6873C35.176 10.8308 34.9202 10.902 34.6973 10.8822C34.5998 10.8737 34.4233 10.8389 34.3357 10.7024C34.2481 10.5658 34.2902 10.3909 34.3232 10.2988C34.3984 10.0883 34.5697 9.88522 34.7934 9.74188C34.9927 9.61404 35.2177 9.54373 35.4219 9.54373C35.4469 9.54373 35.4716 9.54477 35.4958 9.54692C35.5933 9.55547 35.7698 9.59023 35.8573 9.72678C35.9449 9.86341 35.9029 10.0383 35.87 10.1304Z" fill="#73CDFF"/>
</g>
<defs>
<clipPath id="clip0">
<rect width="41" height="41" fill="white"/>
</clipPath>
</defs>
</svg>
