<svg width="156" height="133" viewBox="0 0 156 133" fill="none" xmlns="http://www.w3.org/2000/svg">
<path d="M80 19V108M100 35.1818H70C66.287 35.1818 62.726 36.6736 60.1005 39.3289C57.475 41.9843 56 45.5857 56 49.3409C56 53.0961 57.475 56.6976 60.1005 59.3529C62.726 62.0082 66.287 63.5 70 63.5H90C93.713 63.5 97.274 64.9918 99.8995 67.6471C102.525 70.3024 104 73.9039 104 77.6591C104 81.4143 102.525 85.0157 99.8995 87.6711C97.274 90.3264 93.713 91.8182 90 91.8182H56" stroke="#73CDFF" stroke-width="6" stroke-linecap="round" stroke-linejoin="round"/>
<path d="M27 113.5L14.5 101L2 113.5M27 131L14.5 118.5L2 131" stroke="#73CDFF" stroke-width="4" stroke-linecap="round" stroke-linejoin="round"/>
<path d="M154 14.5L141.5 2L129 14.5M154 32L141.5 19.5L129 32" stroke="#73CDFF" stroke-width="4" stroke-linecap="round" stroke-linejoin="round"/>
</svg>
