<svg width="130" height="108" viewBox="0 0 130 108" fill="none" xmlns="http://www.w3.org/2000/svg">
<path d="M87.1818 104V92.8889C87.1818 86.9952 84.8448 81.3429 80.6849 77.1754C76.525 73.0079 70.883 70.6667 65 70.6667H26.1818C20.2988 70.6667 14.6568 73.0079 10.4969 77.1754C6.33701 81.3429 4 86.9952 4 92.8889V104M92.7273 48.4444L103.818 59.5556L126 37.3333M67.7727 26.2222C67.7727 38.4952 57.8416 48.4444 45.5909 48.4444C33.3402 48.4444 23.4091 38.4952 23.4091 26.2222C23.4091 13.9492 33.3402 4 45.5909 4C57.8416 4 67.7727 13.9492 67.7727 26.2222Z" stroke="#73CDFF" stroke-width="8" stroke-linecap="round" stroke-linejoin="round"/>
</svg>
