<svg width="145" height="143" viewBox="0 0 145 143" fill="none" xmlns="http://www.w3.org/2000/svg">
<g clip-path="url(#clip0)">
<path d="M74.3929 78.0431C74.1247 77.9859 73.8494 77.9755 73.5777 78.0156C70.8543 77.703 68.7999 75.4306 68.7953 72.7277C68.7953 71.4323 67.7303 70.3821 66.4169 70.3821C65.1034 70.3821 64.0385 71.4323 64.0385 72.7277C64.0454 77.2414 67.1067 81.195 71.5198 82.3896V84.7352C71.5198 86.0306 72.5847 87.0808 73.8982 87.0808C75.2117 87.0808 76.2766 86.0306 76.2766 84.7352V82.5316C81.3703 81.4802 84.8322 76.8016 84.2968 71.6969C83.7603 66.5922 79.3995 62.713 74.1955 62.7119C71.2132 62.7119 68.7953 60.3273 68.7953 57.3861C68.7953 54.445 71.2132 52.0604 74.1955 52.0604C77.1778 52.0604 79.5957 54.445 79.5957 57.3861C79.5957 58.6815 80.6607 59.7318 81.9742 59.7318C83.2876 59.7318 84.3526 58.6815 84.3526 57.3861C84.3456 52.6468 80.9789 48.5592 76.2766 47.5811V45.4462C76.2766 44.1508 75.2117 43.1006 73.8982 43.1006C72.5847 43.1006 71.5198 44.1508 71.5198 45.4462V47.7242C66.612 49.0459 63.4531 53.7452 64.129 58.7182C64.8049 63.6911 69.1077 67.4031 74.1955 67.402C77.1383 67.402 79.5388 69.7258 79.5922 72.6269C79.6468 75.528 77.3334 77.9378 74.3929 78.0431Z" fill="#73CDFF"/>
<path d="M39.7062 65.2373C39.7062 84.0228 55.1473 99.251 74.1956 99.251C93.2438 99.251 108.685 84.0228 108.685 65.2373C108.685 46.4518 93.2438 31.2236 74.1956 31.2236C55.1566 31.2442 39.7282 46.461 39.7062 65.2373ZM74.1956 35.9149C90.6169 35.9149 103.928 49.0425 103.928 65.2373C103.928 81.4321 90.6169 94.5598 74.1956 94.5598C57.7743 94.5598 44.463 81.4321 44.463 65.2373C44.4816 49.0505 57.7824 35.9332 74.1956 35.9149Z" fill="#73CDFF"/>
<path d="M120.41 105.034L101.778 113.716C99.2061 108.997 94.2715 105.994 88.8411 105.843L71.6417 105.376C68.9184 105.3 66.2462 104.619 63.8248 103.386L62.0746 102.491C53.1138 97.885 42.4329 97.8964 33.4813 102.521L33.5905 98.6111C33.6265 97.3157 32.5918 96.2368 31.2783 96.2013L12.4182 95.6894C11.1047 95.6539 10.0119 96.6743 9.97588 97.9697L8.8366 138.787C8.8006 140.082 9.83535 141.161 11.1488 141.196L30.0089 141.708H30.074C31.3631 141.708 32.4176 140.697 32.4524 139.427L32.507 137.474L37.4067 134.887C39.3298 133.866 41.5782 133.623 43.679 134.21L72.9378 142.308C72.9889 142.323 73.04 142.335 73.0922 142.346C75.207 142.783 77.3625 143.001 79.5226 143C84.0982 143.002 88.6205 142.03 92.7792 140.147C92.8814 140.101 92.9801 140.048 93.0742 139.987L135.497 112.925C136.554 112.251 136.895 110.882 136.276 109.801C133.126 104.29 126.141 102.19 120.41 105.034ZM13.6573 136.572L14.6654 100.444L28.7698 100.826L27.7618 136.955L13.6573 136.572ZM90.6366 135.958C85.4698 138.257 79.6991 138.892 74.1456 137.773L44.9658 129.695C41.6815 128.78 38.1662 129.159 35.1618 130.752L32.658 132.075L33.328 108.054C41.2623 102.85 51.4379 102.315 59.8878 106.657L61.638 107.551C64.6969 109.109 68.0706 109.968 71.5117 110.067L88.7122 110.533C93.5434 110.67 97.6464 114.063 98.6265 118.731L73.0063 118.033C71.6928 117.998 70.6 119.02 70.5628 120.314C70.5268 121.609 71.5628 122.688 72.8751 122.723L101.149 123.491H101.215C102.503 123.49 103.556 122.478 103.591 121.209C103.62 120.19 103.544 119.17 103.361 118.166L122.471 109.261C122.49 109.253 122.508 109.244 122.527 109.235C125.237 107.882 128.515 108.335 130.744 110.37L90.6366 135.958Z" fill="#73CDFF"/>
<path d="M76.574 24.6289V2.34561C76.574 1.05026 75.509 0 74.1956 0C72.8821 0 71.8171 1.05026 71.8171 2.34561V24.6289C71.8171 25.9243 72.8821 26.9745 74.1956 26.9745C75.509 26.9745 76.574 25.9243 76.574 24.6289Z" fill="#73CDFF"/>
<path d="M94.4121 24.6289V14.0736C94.4121 12.7783 93.3472 11.728 92.0337 11.728C90.7202 11.728 89.6553 12.7783 89.6553 14.0736V24.6289C89.6553 25.9243 90.7202 26.9745 92.0337 26.9745C93.3472 26.9745 94.4121 25.9243 94.4121 24.6289Z" fill="#73CDFF"/>
<path d="M58.7358 24.6289V14.0736C58.7358 12.7783 57.6709 11.728 56.3574 11.728C55.0439 11.728 53.979 12.7783 53.979 14.0736V24.6289C53.979 25.9243 55.0439 26.9745 56.3574 26.9745C57.6709 26.9745 58.7358 25.9243 58.7358 24.6289Z" fill="#73CDFF"/>
</g>
<defs>
<clipPath id="clip0">
<rect width="145" height="143" fill="white"/>
</clipPath>
</defs>
</svg>
